<svg xmlns="http://www.w3.org/2000/svg" viewBox="0 0 200 200" role="img">
  <title>pulpo.club mark</title>
  <desc>Pinwheel-only favicon mark for pulpo.club.</desc>
  <rect width="200" height="200" rx="40" fill="#0F2A3F"/>
  <g transform="translate(100,100)">
    <g fill="none" stroke="#FF6B6B" stroke-width="11" stroke-linecap="round">
      <path d="M 0 0 Q 22 -10, 48 -36" transform="rotate(0)"/>
      <path d="M 0 0 Q 22 -10, 48 -36" transform="rotate(45)"/>
      <path d="M 0 0 Q 22 -10, 48 -36" transform="rotate(90)"/>
      <path d="M 0 0 Q 22 -10, 48 -36" transform="rotate(135)"/>
      <path d="M 0 0 Q 22 -10, 48 -36" transform="rotate(180)"/>
      <path d="M 0 0 Q 22 -10, 48 -36" transform="rotate(225)"/>
      <path d="M 0 0 Q 22 -10, 48 -36" transform="rotate(270)"/>
      <path d="M 0 0 Q 22 -10, 48 -36" transform="rotate(315)"/>
    </g>
    <circle cx="0" cy="0" r="12" fill="#FFF4E6"/>
  </g>
</svg>
